<svg xmlns="http://www.w3.org/2000/svg" viewBox="0 0 160 38" width="160" height="38">
  <rect x="0.75" y="0.75" width="158.5" height="36.5" rx="8" fill="#0b0f19" stroke="#1e293b" stroke-width="1.5" />
  <g transform="translate(15, 9) scale(0.83)">
    <path fill="#38bdf8" d="M12 2C6.48 2 2 6.48 2 12s4.48 10 10 10 10-4.48 10-10S17.52 2 12 2zm-1 17.93c-3.95-.49-7-3.85-7-7.93 0-.62.08-1.21.21-1.79L9 15v1c0 1.1.9 2 2 2v1.93zm6.9-2.53c-.26-.81-1-1.4-1.9-1.4h-1v-3c0-.55-.45-1-1-1h-6v-2h2c.55 0 1-.45 1-1V7h2c1.1 0 2-.9 2-2v-.41c2.93 1.19 5 4.06 5 7.41 0 2.08-.8 3.97-2.1 5.4z"/>
  </g>
  <text x="45" y="24" font-family="system-ui, -apple-system, sans-serif" font-size="13" font-weight="600" fill="#ffffff">Demo en Vivo</text>
</svg>
