<svg xmlns="http://www.w3.org/2000/svg" viewBox="0 0 140 38" width="140" height="38">
  <rect x="0.75" y="0.75" width="138.5" height="36.5" rx="8" fill="#0b0f19" stroke="#1e293b" stroke-width="1.5" />
  <g transform="translate(15, 9) scale(0.83)">
    <path fill="#38bdf8" d="M19 0h-14c-2.761 0-5 2.239-5 5v14c0 2.761 2.239 5 5 5h14c2.762 0 5-2.239 5-5v-14c0-2.761-2.238-5-5-5zm-11 19h-3v-11h3v11zm-1.5-12.268c-.966 0-1.75-.79-1.75-1.764s.784-1.764 1.75-1.764 1.75.79 1.75 1.764-.783 1.764-1.75 1.764zm13.5 12.268h-3v-5.604c0-3.368-4-3.113-4 0v5.604h-3v-11h3v1.765c1.396-2.586 7-2.777 7 2.476v6.759z"/>
  </g>
  <text x="45" y="24" font-family="system-ui, -apple-system, sans-serif" font-size="13" font-weight="600" fill="#ffffff">LinkedIn</text>
</svg>
