<svg xmlns="http://www.w3.org/2000/svg" viewBox="0 0 160 38" width="160" height="38">
  <rect x="0.75" y="0.75" width="158.5" height="36.5" rx="8" fill="#0b0f19" stroke="#1e293b" stroke-width="1.5" />
  <g transform="translate(15, 9) scale(0.83)">
    <path fill="#38bdf8" d="M12 2A10 10 0 0 0 2 12c0 4.42 2.87 8.17 6.84 9.5.5.08.66-.23.66-.5v-1.69c-2.77.6-3.36-1.34-3.36-1.34-.46-1.16-1.11-1.47-1.11-1.47-.9-.62.07-.6.07-.6 1 .07 1.53 1.03 1.53 1.03.9 1.52 2.34 1.07 2.91.83.09-.65.35-1.09.63-1.34-2.22-.25-4.55-1.11-4.55-4.92 0-1.11.38-2 1.03-2.71-.1-.25-.45-1.29.1-2.64 0 0 .84-.27 2.75 1.02.79-.22 1.65-.33 2.5-.33.85 0 1.71.11 2.5.33 1.91-1.29 2.75-1.02 2.75-1.02.55 1.35.2 2.39.1 2.64.65.71 1.03 1.6 1.03 2.71 0 3.82-2.34 4.66-4.57 4.91.36.31.69.92.69 1.85V21c0 .27.16.59.67.5C19.14 20.16 22 16.42 22 12A10 10 0 0 0 12 2z"/>
  </g>
  <text x="45" y="24" font-family="system-ui, -apple-system, sans-serif" font-size="13" font-weight="600" fill="#ffffff">Repo Backend</text>
</svg>
